{"title":"Unknown 2011 TS AC3  XViD SAFCuk009 {DragonTrG}","uid":6191678,"size":1238018246,"categoryP":"video","categoryS":"movies","magnet":"?xt=urn:btih:7681a0e0f4686795c43f866d1b2ac5ddb6c90b42&amp;dn=Unknown+2011+TS+AC3++XViD+SAFCuk009+%7BDragonTrG%7D&amp;tr=udp%3A%2F%2Ftracker.openbittorrent.com%3A80&amp;tr=udp%3A%2F%2Fopen.demonii.com%3A1337&amp;tr=udp%3A%2F%2Ftracker.coppersurfer.tk%3A6969&amp;tr=udp%3A%2F%2Fexodus.desync.com%3A6969","seeders":1,"leechers":0,"uploader":"SAFCukO09","files":4,"time":1298310402,"description":"Format : AVI\nFormat/Info : Audio Video Interleave\nFile size : 1.15 GiB\nDuration : 1h 47mn\nOverall bit rate : 1 525 Kbps\nWriting library : VirtualDub build 32839/release\n\nVideo\nID : 0\nFormat : MPEG-4 Visual\nFormat profile : Advanced Simple@L5\nFormat settings, BVOP : Yes\nFormat settings, QPel : No\nFormat settings, GMC : No warppoints\nFormat settings, Matrix : Custom\nCodec ID : XVID\nCodec ID/Hint : XviD\nDuration : 1h 47mn\nBit rate : 1 387 Kbps\nWidth : 720 pixels\nHeight : 304 pixels\nDisplay aspect ratio : 2.35:1\nFrame rate : 25.000 fps\nColor space : YUV\nChroma subsampling : 4:2:0\nBit depth : 8 bits\nScan type : Progressive\nBits/(Pixel*Frame) : 0.254\nStream size : 1.05 GiB (91%)\nWriting library : XviD 1.2.1 (UTC 2008-12-04)\n\nAudio\nID : 1\nFormat : AC-3\nFormat/Info : Audio Coding 3\nMode extension : CM (complete main)\nCodec ID : 2000\nDuration : 1h 47mn\nBit rate mode : Constant\nBit rate : 128 Kbps\nChannel(s) : 2 channels\nChannel positions : Front: L R\nSampling rate : 48.0 KHz\nBit depth : 16 bits\nStream size : 98.7 MiB (8%)\nAlignment : Aligned on interleaves\nInterleave, duration : 40 ms (1.00 video frame)\nInterleave, preload duration : 512 ms\n\n\n\n\n &lt;a href=&quot;\nhttp://www.imdb.com/title/tt1401152/&quot; rel=&quot;nofollow&quot; target=&quot;_NEW&quot;&gt;\nhttp://www.imdb.com/title/tt1401152/&lt;/a&gt;\n\n\n\n\n89524873606771859129.png\n\n\nUsers: 8.0/10 (1,840 votes) 36 reviews | Critics: 32 reviews Metascore: 57/100 (based on 33 reviews from Metacritic.com)\n\nA man awakens from a coma, only to discover that someone has taken on his identity and that no one, (not even his wife), believes him. With the help of a young woman, he sets out to prove who he is.\nDirector:\nJaume Collet-Serra\nWriters:\nOliver Butcher (screenplay), Stephen Cornwell (screenplay), and 1 more credit Ã‚Â»\nStars:\nLiam Neeson, Diane Kruger and January Jones\n","torrent":{"xt":"urn:btih:7681a0e0f4686795c43f866d1b2ac5ddb6c90b42","amp;dn":"Unknown+2011+TS+AC3++XViD+SAFCuk009+%7BDragonTrG%7D","amp;tr":["udp%3A%2F%2Ftracker.openbittorrent.com%3A80","udp%3A%2F%2Fopen.demonii.com%3A1337","udp%3A%2F%2Ftracker.coppersurfer.tk%3A6969","udp%3A%2F%2Fexodus.desync.com%3A6969"],"infoHash":"7681a0e0f4686795c43f866d1b2ac5ddb6c90b42","infoHashBuffer":{"type":"Buffer","data":[118,129,160,224,244,104,103,149,196,63,134,109,27,42,197,221,182,201,11,66]},"announce":[],"urlList":[]}}